# xmcd CD database file
#
# Track frame offsets:
#	150
#	24842
#	82295
#	117182
#	143807
#	168694
#	179859
#	205420
#	240975
#
# Disc length: 3679 seconds
#
# Revision: 2
# Processed by: cddbd v1.5.2PL0 Copyright (c) Steve Scherf et al.
# Submitted via: CDex 1.51
#
DISCID=7e0e5d09
DTITLE=Dave Douglas - Meaning And Mystery
DYEAR=2006
DGENRE=Jazz
TTITLE0=Painter's Way
TTITLE1=Culture Wars
TTITLE2=The Sheik Of Things To Come
TTITLE3=Blues To Steve Lacy
TTITLE4=Tim Bits
TTITLE5=Twombly Infinites
TTITLE6=Elk's Club
TTITLE7=Invocation
TTITLE8=The Team
EXTD=YEAR: 2006
EXTT0=
EXTT1=
EXTT2=
EXTT3=
EXTT4=
EXTT5=
EXTT6=
EXTT7=
EXTT8=
PLAYORDER=
